<svg width="70" height="77" viewBox="0 0 70 77" fill="none" xmlns="http://www.w3.org/2000/svg">
<path fill-rule="evenodd" clip-rule="evenodd" d="M1 44.8076C1 20.7339 28.5999 0 35.5 0C42.4 0 70 26.3359 70 44.8076C70 63.2792 54.5538 77 35.5 77C34.4829 77 33.4761 76.9769 32.4813 76.9294C31.7504 75.4612 30.9823 73.7339 30.4081 71.9128C30.9736 71.8411 31.5753 71.7344 32.1851 71.578C33.5459 71.2291 35.0394 70.6093 36.2462 69.4908C37.4876 68.3403 38.3442 66.7346 38.4962 64.6069C38.5793 63.4429 39.1968 62.5845 40.2468 61.8244C41.2743 61.0806 42.553 60.5469 43.8605 60.0012L44.1417 59.8837C44.804 59.6065 45.5009 59.3077 46.0809 58.9753C46.6212 58.6656 47.3173 58.1884 47.6932 57.4365C47.9831 56.8567 48.0165 56.2674 47.8781 55.7164C58.0528 53.1793 66.3852 40.9611 57.2752 45.9796C47.2737 51.4891 33.6134 44.3994 43.6092 45.9796C53.6049 47.5598 62 42.5 62 42.5L62.019 42.3278L62.019 42.3277C62.1928 40.7547 62.3222 39.5838 62.0694 38.5023C61.6257 36.6037 60.0045 34.9804 55.3791 31.9405C53.2431 28.0532 50.2556 24.9225 47.4532 21.9856L47.453 21.9854C46.6485 21.1424 45.8593 20.3154 45.1099 19.491C42.2528 16.3481 38.7589 15.3857 35.223 16.3499C33.6846 16.7694 32.1775 17.5418 30.7327 18.5999C21.0271 16.507 17.195 23.671 13.9452 30.3172C13.3791 30.7176 12.862 31.0982 12.3913 31.4566C10.9865 32.5263 9.99515 33.3988 9.34573 34.0149C9.02105 34.323 8.78195 34.5668 8.61948 34.739C8.53825 34.8251 8.47619 34.8933 8.43218 34.9426C8.41018 34.9673 8.39269 34.9873 8.37957 35.0024L8.36317 35.0214L8.35739 35.0282L8.3551 35.0309L8.35411 35.0321C8.35365 35.0326 8.35322 35.0331 9.5 36L8.35322 35.0331L8.06326 35.569L5.23848 44.9849L1.27154 47.1888L1.07292 47.6116C1.02456 46.7019 1 45.7674 1 44.8076ZM31.4399 68.672C30.8463 68.8242 30.2498 68.9186 29.695 68.975C28.7016 62.872 31.0589 56.699 44.75 56.1618C44.773 56.1869 44.7941 56.2108 44.8135 56.2335C44.7549 56.2732 44.6811 56.3197 44.5891 56.3725C44.1944 56.5986 43.6648 56.8311 42.9833 57.1164C42.8768 57.1609 42.767 57.2066 42.6543 57.2534C41.4091 57.7711 39.8134 58.4346 38.4876 59.3944C36.9907 60.478 35.6707 62.0571 35.5038 64.3932C35.4058 65.7654 34.8874 66.6598 34.2069 67.2905C33.4919 67.9532 32.5166 68.396 31.4399 68.672ZM45.4123 24.2053C46.542 25.3956 47.6542 26.5675 48.7023 27.7672C46.7026 26.5514 44.4155 25.1755 41.8014 23.603L41.801 23.6027L40.4509 22.7905C38.3008 21.4967 36.3393 20.5106 34.5447 19.7921C35.0404 19.5585 35.5306 19.3756 36.0122 19.2443C38.3979 18.5937 40.7472 19.1518 42.8901 21.509C43.7278 22.4304 44.5748 23.3229 45.4122 24.2052L45.4123 24.2053L45.4123 24.2053ZM37.9101 33.3891C37.9101 38.0305 33.8195 41.7932 28.7734 41.7932C23.7274 41.7932 19.6367 38.0305 19.6367 33.3891C19.6367 28.7476 23.7274 24.9849 28.7734 24.9849C33.8195 24.9849 37.9101 28.7476 37.9101 33.3891ZM35 33.5C35 37.6421 32.3137 41 29 41C25.6863 41 23 37.6421 23 33.5C23 29.3579 25.6863 26 29 26C32.3137 26 35 29.3579 35 33.5Z" fill="#544CAF"/>
</svg>
